<svg width="464" height="131" viewBox="0 0 464 131" fill="none" xmlns="http://www.w3.org/2000/svg">
<path fill-rule="evenodd" clip-rule="evenodd" d="M410.29 1C410.29 0.447718 410.738 0 411.29 0H431.459C432.011 0 432.459 0.447715 432.459 1V23.754L452.164 12.3774C452.642 12.1012 453.254 12.2651 453.53 12.7434L463.615 30.2103C463.891 30.6886 463.727 31.3002 463.249 31.5763L443.545 42.9523L463.249 54.3286C463.727 54.6048 463.891 55.2164 463.615 55.6946L453.531 73.1616C453.255 73.6399 452.643 73.8037 452.165 73.5276L432.459 62.1506V84.9051C432.459 85.4574 432.011 85.9051 431.459 85.9051H411.29C410.738 85.9051 410.29 85.4574 410.29 84.9051V62.152L390.585 73.5289C390.106 73.805 389.495 73.6412 389.219 73.1629L379.134 55.6959C378.858 55.2177 379.022 54.6061 379.5 54.3299L399.207 42.9523L379.501 31.575C379.022 31.2989 378.859 30.6873 379.135 30.209L389.219 12.7421C389.495 12.2638 390.107 12.0999 390.585 12.3761L410.29 23.7527V1Z" fill="#7BA0FF"/>
<path d="M23.6758 26.6719L27.6133 7.40625H32.0254L26.1191 33H21.8652L16.9961 14.3145L12.0215 33H7.75L1.84375 7.40625H6.25586L10.2285 26.6367L15.1152 7.40625H18.8418L23.6758 26.6719ZM55.5977 33H51.168V21.627H39.7246V33H35.2773V7.40625H39.7246V18.0586H51.168V7.40625H55.5977V33ZM81.2969 20.8711C81.2969 23.3789 80.8633 25.582 79.9961 27.4805C79.1289 29.3672 77.8867 30.8203 76.2695 31.8398C74.6641 32.8477 72.8125 33.3516 70.7148 33.3516C68.6406 33.3516 66.7891 32.8477 65.1602 31.8398C63.543 30.8203 62.2891 29.373 61.3984 27.498C60.5195 25.623 60.0742 23.4609 60.0625 21.0117V19.5703C60.0625 17.0742 60.502 14.8711 61.3809 12.9609C62.2715 11.0508 63.5195 9.5918 65.125 8.58398C66.7422 7.56445 68.5938 7.05469 70.6797 7.05469C72.7656 7.05469 74.6113 7.55859 76.2168 8.56641C77.834 9.5625 79.082 11.0039 79.9609 12.8906C80.8398 14.7656 81.2852 16.9512 81.2969 19.4473V20.8711ZM76.8496 19.5352C76.8496 16.6992 76.3105 14.5254 75.2324 13.0137C74.166 11.502 72.6484 10.7461 70.6797 10.7461C68.7578 10.7461 67.252 11.502 66.1621 13.0137C65.084 14.5137 64.5332 16.6406 64.5098 19.3945V20.8711C64.5098 23.6836 65.0547 25.8574 66.1445 27.3926C67.2461 28.9277 68.7695 29.6953 70.7148 29.6953C72.6836 29.6953 74.1953 28.9453 75.25 27.4453C76.3164 25.9453 76.8496 23.7539 76.8496 20.8711V19.5352ZM172.879 25.4766C172.879 23.918 173.072 22.6758 173.459 21.75C173.846 20.8242 174.607 19.8105 175.744 18.709C176.893 17.5957 177.619 16.8047 177.924 16.3359C178.393 15.6211 178.627 14.8477 178.627 14.0156C178.627 12.9141 178.352 12.0762 177.801 11.502C177.262 10.916 176.465 10.623 175.41 10.623C174.402 10.623 173.588 10.9102 172.967 11.4844C172.357 12.0469 172.053 12.8145 172.053 13.7871H167.781C167.805 11.7129 168.508 10.0723 169.891 8.86523C171.285 7.6582 173.125 7.05469 175.41 7.05469C177.766 7.05469 179.6 7.65234 180.912 8.84766C182.236 10.043 182.898 11.7129 182.898 13.8574C182.898 15.7676 182.008 17.6484 180.227 19.5L178.064 21.627C177.291 22.5059 176.893 23.7891 176.869 25.4766H172.879ZM172.58 30.9434C172.58 30.252 172.797 29.6953 173.23 29.2734C173.664 28.8398 174.25 28.623 174.988 28.623C175.738 28.623 176.33 28.8457 176.764 29.291C177.197 29.7246 177.414 30.2754 177.414 30.9434C177.414 31.5879 177.203 32.127 176.781 32.5605C176.359 32.9941 175.762 33.2109 174.988 33.2109C174.215 33.2109 173.617 32.9941 173.195 32.5605C172.785 32.127 172.58 31.5879 172.58 30.9434Z" fill="#262626"/>
<path d="M109.018 27.041H99.1035L97.0293 33H92.4062L102.074 7.40625H106.064L115.75 33H111.109L109.018 27.041ZM100.352 23.4551H107.77L104.061 12.8379L100.352 23.4551ZM124.434 7.40625L131.816 27.0234L139.182 7.40625H144.93V33H140.5V24.5625L140.939 13.2773L133.381 33H130.199L122.658 13.2949L123.098 24.5625V33H118.668V7.40625H124.434ZM163.861 33H159.432V7.40625H163.861V33Z" fill="#7BA0FF"/>
<path d="M61.4111 115.989V130.614H12.9736V115.989H61.4111ZM19.0986 39.6136V130.614H0.348633V39.6136H19.0986ZM55.0986 76.6761V90.9261H12.9736V76.6761H55.0986ZM61.3486 39.6136V54.3011H12.9736V39.6136H61.3486ZM80.9111 39.6136H96.7861L120.161 106.426L143.536 39.6136H159.411L126.536 130.614H113.786L80.9111 39.6136ZM72.3486 39.6136H88.1611L91.0361 104.739V130.614H72.3486V39.6136ZM152.161 39.6136H168.036V130.614H149.286V104.739L152.161 39.6136ZM193.036 39.6136H208.911L232.286 106.426L255.661 39.6136H271.536L238.661 130.614H225.911L193.036 39.6136ZM184.474 39.6136H200.286L203.161 104.739V130.614H184.474V39.6136ZM264.286 39.6136H280.161V130.614H261.411V104.739L264.286 39.6136ZM334.724 55.1761L309.974 130.614H290.036L323.849 39.6136H336.536L334.724 55.1761ZM355.286 130.614L330.474 55.1761L328.474 39.6136H341.286L375.286 130.614H355.286ZM354.161 96.7386V111.426H306.099V96.7386H354.161Z" fill="black"/>
</svg>
